<svg width="100" height="100" viewBox="0 0 100 100" fill="none" xmlns="http://www.w3.org/2000/svg">
<path d="M99.9669 4.50704C100.272 2.11608 98.4096 0 95.9992 0H45.7741C43.7574 0 42.0561 1.5013 41.8051 3.50233L41.0267 9.7107L20.3718 9.71262L20.0513 9.72414C17.6141 9.88551 15.687 11.8891 15.687 14.3346C15.6849 15.558 16.1772 16.7322 17.0558 17.5989C17.9343 18.4656 19.1271 18.954 20.3718 18.9565H39.8677L37.6435 36.7258H4.68487L4.36434 36.7374C1.92711 36.8987 6.53575e-06 38.9023 6.53575e-06 41.3497C-0.00206903 42.5731 0.490286 43.7473 1.36881 44.614C2.24734 45.4808 3.44011 45.9691 4.68487 45.9716H36.4845C36.4845 45.9716 36.8148 45.4338 36.0604 49.3661C35.3059 53.2984 34.8095 57.2672 34.5691 61.2513L34.2603 63.739L13.7344 63.741L13.4139 63.7525C10.9767 63.9139 9.04957 65.9156 9.04957 68.3629C9.0475 69.5864 9.53985 70.7605 10.4184 71.6273C11.2969 72.494 12.4897 72.9823 13.7344 72.9849H33.1013L30.8751 90.7542L16.3641 90.7427L16.0435 90.7542C13.6063 90.9156 11.6792 92.9192 11.6792 95.3665C11.6771 96.59 12.1695 97.7642 13.048 98.6309C13.9265 99.4976 15.1193 99.9859 16.3641 99.9885L29.7181 99.9981L29.72 100H44.5547C46.5713 100 48.2726 98.4989 48.5236 96.4979L52.7812 62.5615C53.0323 60.5606 54.7335 59.0595 56.7501 59.0595H84.1228C86.1285 59.0595 87.8242 57.574 88.088 55.5857L88.9261 49.2703C89.2442 46.8732 87.379 44.7441 84.9609 44.7441H59.5101C57.1044 44.7441 55.2429 42.6357 55.541 40.2485L58.3415 17.8197C58.5915 15.8178 60.2932 14.3154 62.3107 14.3154H95.1922C97.2053 14.3154 98.9047 12.8193 99.1599 10.8224L99.9669 4.50704Z" fill="url(#paint0_linear_104_656)"/>
<path d="M4.52444 100C7.02321 100 9.04887 97.9853 9.04887 95.5C9.04887 93.0147 7.02321 91 4.52444 91C2.02566 91 6.43546e-06 93.0147 6.43546e-06 95.5C6.43546e-06 97.9853 2.02566 100 4.52444 100Z" fill="url(#paint1_linear_104_656)"/>
<defs>
<linearGradient id="paint0_linear_104_656" x1="-1.156" y1="41.833" x2="102.197" y2="41.833" gradientUnits="userSpaceOnUse">
<stop stop-color="#3182CE"/>
<stop offset="1" stop-color="#4FD1C5"/>
</linearGradient>
<linearGradient id="paint1_linear_104_656" x1="-1.156" y1="41.833" x2="102.197" y2="41.833" gradientUnits="userSpaceOnUse">
<stop stop-color="#3182CE"/>
<stop offset="1" stop-color="#4FD1C5"/>
</linearGradient>
</defs>
</svg>
